HIERARCHY
ROOT pelvis
{
  OFFSET 0 100 0
  CHANNELS 6 Xposition Yposition Zposition Zrotation Xrotation Yrotation
  JOINT pelvis_right_femur
  {
    OFFSET -10.78128 -3.44521 -0.5502486
    CHANNELS 3 Zrotation Xrotation Yrotation
    JOINT right_femur_tibia
    {
      OFFSET -0.8047443 -44.0398 -0.1307829
      CHANNELS 3 Zrotation Xrotation Yrotation
      JOINT right_tibia_foot
      {
        OFFSET 3.006224 -47.83518 -5
        CHANNELS 3 Zrotation Xrotation Yrotation
        End Site
        {
          OFFSET 0 -5 15
        }
      }
    }
  }
  JOINT pelvis_left_femur
  {
    OFFSET 10.78128 -3.44521 -0.5502486
    CHANNELS 3 Zrotation Xrotation Yrotation
    JOINT left_femur_tibia
    {
      OFFSET 0.8047443 -44.0398 -0.1307829
      CHANNELS 3 Zrotation Xrotation Yrotation
      JOINT left_tibia_foot
      {
        OFFSET -4.370144 -48.10324 -4.275266
        CHANNELS 3 Zrotation Xrotation Yrotation
        End Site
        {
          OFFSET 0 -5 15
        }
      }
    }
  }
  JOINT pelvis_spine1
  {
    OFFSET 0 6.468898 -3.129235
    CHANNELS 3 Zrotation Xrotation Yrotation
    JOINT spine1
    {
      OFFSET 0 23.15396 4.99043
      CHANNELS 3 Zrotation Xrotation Yrotation
      JOINT spine2
      {
        OFFSET 0 20.79997 -5.064912
        CHANNELS 3 Zrotation Xrotation Yrotation
        JOINT neck
        {
          OFFSET 0 14.38658 9.616178
          CHANNELS 3 Zrotation Xrotation Yrotation
          End Site
          {
            OFFSET 0 20 0
          }
        }
      }
      JOINT right_manubrium
      {
        OFFSET -5.722621 16.35077 3.967754
        CHANNELS 3 Zrotation Xrotation Yrotation
        JOINT right_clavicle
        {
          OFFSET -13.16364 1.694482 -4.693211
          CHANNELS 3 Zrotation Xrotation Yrotation
          JOINT right_humerus
          {
            OFFSET -28.5034 -0.3100689 -2.792744
            CHANNELS 3 Zrotation Xrotation Yrotation
            JOINT right_radius
            {
              OFFSET -25.15693 0.02248979 -1.271978
              CHANNELS 3 Zrotation Xrotation Yrotation
              End Site
              {
                OFFSET -15 0 0
              }
            }
          }
        }
      }
      JOINT left_manubrium
      {
        OFFSET 5.722621 16.35077 3.967754
        CHANNELS 3 Zrotation Xrotation Yrotation
        JOINT left_clavicle
        {
          OFFSET 13.16364 1.694482 -4.693211
          CHANNELS 3 Zrotation Xrotation Yrotation
          JOINT left_humerus
          {
            OFFSET 29.39168 -1.063119 -2.237045
            CHANNELS 3 Zrotation Xrotation Yrotation
            JOINT left_radius
            {
              OFFSET 24.59957 -0.9528479 0.9047498
              CHANNELS 3 Zrotation Xrotation Yrotation
              End Site
              {
                OFFSET 15 -0 -0
              }
            }
          }
        }
      }
    }
  }
}
MOTION
Frames: 19
Frame Time: 0.0416666666667
0 103.5113 0 1.753231 -1.938509 0.05879014 2.514833 -12.03863 8.068197 -0 38.36386 -0 -6.096667 -15.90832 -4.874564 -7.108971 12.76327 -24.5235 -0 7.948205 -0 0.09195174 -19.46725 23.83085 -4.277414 -3.668674 3.701252 2.252919 8.339914 -8.37711 -0.121966 23.08227 8.567679 4.888268 -22.30689 7.618451 7.580706 -18.97342 11.6277 86.72693 38.20786 -22.82602 -0 0 15.61243 -8.254665 8.094008 5.04692 4.031213 -19.29053 -3.904369 -100.6608 40.7715 28.72993 0 0 -19.54329 -12.36576 14.91965 27.6883
0.1313466 103.5615 1.244918 1.522831 -2.116842 0.06398254 2.675904 -12.78408 8.070814 -0 38.67883 -0 -6.230803 -15.5762 -5.066563 -6.87899 13.10628 -24.22152 -0 7.056848 -0 0.3173921 -19.73392 23.71894 -4.160267 -3.508181 3.487144 2.318448 8.374814 -8.338861 0.1017882 23.15161 8.218097 4.452395 -22.54069 7.798659 7.120042 -19.03178 11.57127 86.95351 37.19398 -22.53971 -0 0 15.2953 -8.236661 7.943602 5.256735 3.96358 -19.21684 -3.741483 -99.90256 40.45091 27.99976 0 0 -19.73735 -11.70138 15.15848 27.17874
0.2557822 103.2668 2.729503 0.6914873 -1.463411 -0.04626725 3.504754 -17.54153 7.728584 -0 33.97486 -0 -5.525145 -15.79812 -4.952153 -6.035005 13.52608 -24.00512 -0 7.147955 -0 -1.659502 -21.32444 21.57801 -3.408848 -2.311289 3.254082 2.434301 7.581323 -8.061302 0.6705695 22.94352 8.117873 4.363636 -22.77395 8.419258 6.856715 -18.34432 11.2658 86.11721 36.23982 -21.77654 -0 0 15.65441 -8.148962 8.547812 5.076497 4.504575 -18.74665 -3.364954 -99.57515 40.53177 27.15841 0 0 -19.73784 -11.32802 15.51389 27.29918
0.4022957 102.612 4.668705 0.1825991 -0.590541 -0.1165989 3.761601 -22.28843 6.248826 -0 28.14688 -0 -5.563463 -13.28565 -4.261902 -5.554878 13.50467 -22.53546 -0 7.069437 -0 -3.227478 -22.7159 18.99345 -2.981193 -1.306501 3.090756 2.581016 7.380701 -8.11835 0.7930845 22.48454 8.283605 4.650031 -23.20437 8.477974 6.554561 -17.91534 11.21556 86.03685 35.58402 -21.79613 -0 0 15.2206 -9.221311 8.94878 5.652646 5.155739 -19.36516 -3.440502 -97.81919 39.3787 25.19067 0 0 -21.02396 -9.988681 15.34846 26.03818
0.5759413 101.5202 7.238363 -0.04982269 0.2182023 -0.08883053 3.410863 -26.81386 3.879981 -0 21.29376 -0 -6.127499 -8.992522 -3.258899 -5.303352 13.46896 -20.15779 -0 6.586985 -0 -4.462437 -24.09517 16.16648 -2.765389 -0.5030273 2.97592 2.69615 7.577185 -8.309942 0.7372909 21.94789 8.436694 4.995122 -23.66937 8.200379 5.926016 -17.70961 11.27488 86.65476 34.50066 -22.31497 -0 0 14.17375 -11.0824 9.075531 6.702872 5.885637 -20.70871 -3.796043 -95.02771 37.25253 22.31193 0 0 -23.4696 -7.947749 14.86747 23.78047
0.7773398 99.89668 10.59314 0.06935791 0.7978142 0.08375808 2.332638 -30.57056 0.7572778 -0 13.53643 -0 -7.033046 -3.615797 -2.086125 -5.296002 13.56412 -17.09998 -0 5.739233 -0 -5.42242 -25.48837 13.2721 -2.7571 0.01883207 2.969809 2.708607 8.052256 -8.522814 0.6087218 21.43156 8.47561 5.288841 -23.96104 7.663119 4.890181 -17.6851 11.35837 87.89395 32.76867 -23.22516 -0 0 12.68881 -13.53206 8.911341 8.00398 6.656505 -22.57396 -4.375923 -91.65822 34.35793 18.85236 0 0 -26.95109 -5.574727 14.04116 20.92382
0.9983733 97.67887 14.85103 0.5484855 0.982898 0.4462248 0.7163641 -32.90475 -2.609494 -0 5.630168 -0 -7.985015 1.788393 -1.074655 -5.51618 14.01963 -13.71951 -0 4.616661 -0 -6.001049 -26.81305 10.69375 -2.921968 0.161588 3.072509 2.567399 8.622393 -8.62942 0.5614715 21.07427 8.24293 5.318617 -23.9063 7.038269 3.38501 -17.73655 11.35252 89.60941 30.2241 -24.27949 -0 0 10.90955 -16.14313 8.491817 9.239207 7.362589 -24.58477 -5.015308 -88.13824 30.98877 15.07269 0 0 -31.04486 -3.133117 12.99191 17.77584
1.222783 94.93155 20.04782 1.261448 0.6966554 1.038507 -0.768493 -33.25466 -5.197527 0 -0.837244 0 -8.531798 5.742185 -0.7415982 -5.878133 15.05982 -10.62166 -0 3.573881 -0 -6.085675 -27.76425 8.948784 -3.140073 -0.1356293 3.204472 2.267225 9.023315 -8.527066 0.7351931 21.00926 7.634992 4.887093 -23.40601 6.575426 1.542377 -17.68087 11.16016 91.48515 27.06484 -25.12888 -0 0 9.063038 -18.21821 7.970813 10.0034 7.838585 -26.15689 -5.473385 -84.99513 27.72605 11.35865 0 0 -34.83859 -0.9222773 11.99134 14.74048
1.423451 91.94909 26.08049 1.836578 0.06368358 1.848967 -1.1773 -31.69365 -5.86767 0 -3.641777 0 -8.330088 6.761325 -1.523323 -6.130627 16.75898 -8.58998 -0 3.458769 -0 -5.778618 -27.72283 8.396846 -3.149989 -0.7695939 3.169587 1.909466 8.979928 -8.220507 1.165055 21.27615 6.726107 3.957633 -22.57812 6.530926 -0.1756529 -17.28644 10.78226 93.02147 24.07154 -25.43788 -0 0 7.442618 -18.94118 7.610451 9.956228 7.897652 -26.63141 -5.503004 -82.78352 25.37412 8.275025 0 0 -36.96228 0.8191575 11.43207 12.24979
1.557972 89.27518 32.66956 1.716604 -0.5356187 2.731725 0.04635286 -29.23617 -4.278999 0 -1.145893 0 -7.681784 4.354696 -3.192843 -5.87489 18.70243 -8.25132 -0 5.852217 -0 -5.618892 -25.89764 8.808499 -2.637458 -1.379938 2.75991 1.719669 8.402568 -7.892809 1.665097 21.72423 5.885084 2.854043 -21.84886 6.963324 -0.9885468 -16.40775 10.38533 93.62991 22.60387 -25.10278 -0 0 6.309778 -17.83423 7.63469 9.073203 7.423313 -25.68512 -5.0109 -81.98045 24.59181 6.585647 0 0 -36.14978 2.004749 11.58088 10.64493
1.591002 87.49498 39.4283 0.6454507 -0.7321267 3.431461 2.552809 -27.1085 -1.367577 -0 5.628224 -0 -7.456997 -0.07344474 -4.788835 -4.955026 19.77961 -9.430686 -0 12.55084 -0 -6.194825 -21.99862 9.43099 -1.567572 -1.53392 2.051808 1.881933 7.590693 -7.785575 1.903889 22.09163 5.580774 2.174029 -21.67616 7.574521 -0.3568434 -15.179 10.19767 93.0484 23.72378 -24.3662 -0 0 5.694558 -15.37973 8.04284 7.794267 6.509589 -23.7967 -4.19766 -82.69365 25.2328 6.810301 0 0 -32.44304 2.780241 12.23632 9.920606
1.546749 86.87918 46.05107 -0.8105224 -0.6700835 3.759438 5.168905 -25.2636 1.381451 -0 12.91948 -0 -8.024324 -4.266852 -5.577547 -3.870676 18.80697 -10.98165 -0 23.85361 -0 -7.323318 -16.89949 9.847757 -0.4162809 -1.129789 1.526527 2.279449 7.044062 -7.884363 1.795277 22.31172 5.834676 2.194656 -21.97374 7.968356 1.286614 -13.97614 10.26833 91.75433 26.90363 -23.56091 -0 0 5.375683 -12.91925 8.677232 6.722517 5.463305 -21.95318 -3.426574 -84.35043 26.35357 8.484564 0 0 -27.59501 3.371314 12.86023 9.711682
1.490344 87.25964 52.42163 -1.719122 -0.9475214 3.661455 6.717708 -22.45724 3.049795 -0 17.53451 -0 -8.854799 -7.186508 -5.664243 -3.250271 15.51783 -11.79363 -0 37.38512 -0 -8.292148 -12.15745 10.29726 0.2348584 -0.4322492 1.628485 2.559954 6.986591 -7.874175 1.626991 22.58597 6.143263 2.557438 -22.12885 8.028582 2.868423 -13.13797 10.45669 90.47605 30.27121 -22.7027 -0 0 5.230657 -11.57227 9.423466 6.154954 4.577638 -20.70362 -2.919588 -86.01002 27.16561 10.41526 0 0 -23.49175 3.799349 13.16658 9.695919
1.44466 88.2474 58.52112 -1.73173 -1.8778 3.212612 6.970637 -17.99429 3.645318 -0 19.00818 -0 -9.303829 -9.079935 -5.467034 -3.116919 10.43987 -11.65933 -0 49.54905 -0 -8.750995 -8.791005 11.06963 0.2554094 0.2915253 2.354994 2.497864 7.290244 -7.50363 1.636955 23.03353 6.12297 2.820026 -21.7425 7.84924 3.761525 -12.84383 10.66398 89.36612 32.4279 -21.46386 -0 0 5.473424 -11.55919 10.2159 6.107393 3.978622 -19.92722 -2.68066 -87.22221 27.48427 11.96404 0 0 -20.67867 3.921288 13.22812 9.823176
1.393415 89.4488 64.33473 -1.12202 -3.235923 2.590729 6.440858 -12.24772 3.596525 -0 18.30292 -0 -9.16408 -10.43194 -5.16844 -3.116692 4.191495 -10.89877 -0 57.74655 -0 -8.750884 -6.91864 12.19105 -0.1213993 0.9343593 3.428546 2.121525 7.74388 -6.780641 1.799756 23.55134 5.794166 2.861128 -20.92991 7.536877 4.005292 -13.15624 10.89791 88.17156 33.20568 -19.55773 -0 0 6.382221 -12.56157 10.98459 6.569568 3.668987 -19.34212 -2.612765 -88.1307 27.38327 13.3146 0 0 -18.77591 3.680419 13.16354 10.13544
1.335453 90.51909 69.8613 -0.287384 -4.63141 1.959447 5.659721 -5.921273 3.234828 -0 16.32321 -0 -8.56198 -11.60447 -4.782343 -2.938291 -2.690669 -9.807116 -0 60.83573 -0 -8.404521 -6.238731 13.57754 -0.6374456 1.467576 4.564017 1.572232 8.185386 -5.850834 1.992401 24.00348 5.329704 2.724235 -19.99098 7.17474 3.831723 -14.03646 11.16695 86.74554 33.00897 -16.95771 -0 0 8.009207 -14.20453 11.65268 7.539747 3.600016 -18.78539 -2.601677 -88.96644 26.96473 14.77154 0 0 -17.31888 3.155902 13.04323 10.60683
1.299439 91.174 75.14095 0.4708238 -5.753122 1.399293 4.950196 0.3702461 2.712071 -0 13.66458 -0 -7.746311 -12.86893 -4.321793 -2.404353 -9.641715 -8.541584 -0 58.61695 -0 -7.785877 -6.38146 15.16062 -1.119895 1.871886 5.532677 0.9974698 8.495124 -4.881161 2.1209 24.32761 4.873048 2.457484 -19.165 6.835576 3.406398 -15.35429 11.42854 85.13495 32.27167 -13.82539 -0 0 10.18167 -16.17589 12.12557 8.965425 3.707193 -18.19311 -2.544527 -89.82504 26.33801 16.41247 0 0 -15.9856 2.490742 12.9222 11.13681
1.326327 91.21792 80.25823 0.9480923 -6.388485 0.910651 4.479717 6.126739 2.08639 -0 10.76928 -0 -6.987856 -14.40325 -3.822484 -1.463092 -16.04248 -7.200953 -0 51.59195 -0 -6.962184 -6.974389 16.8776 -1.462986 2.119956 6.168708 0.5249325 8.588655 -4.027944 2.13537 24.51521 4.521145 2.100569 -18.60923 6.58167 2.81849 -16.91468 11.60388 83.48069 31.35528 -10.42569 -0 0 12.60199 -18.18747 12.29064 10.71442 3.922902 -17.55236 -2.359607 -90.70473 25.62371 18.14578 0 0 -14.56625 1.844028 12.83105 11.59506
1.447324 90.57317 85.33186 1.034233 -6.427447 0.4460552 4.295644 10.97479 1.399175 -0 8.041345 -0 -6.509828 -16.22842 -3.319815 -0.2134303 -21.29884 -5.916763 -0 41.01975 -0 -6.030721 -7.650782 18.62723 -1.615511 2.17586 6.400463 0.2435598 8.432337 -3.413738 2.026168 24.57726 4.333693 1.70539 -18.4133 6.455917 2.111188 -18.49293 11.6076 81.9501 30.53357 -7.092363 -0 0 14.93883 -19.95988 12.0434 12.57376 4.183404 -16.88089 -2.000408 -91.56801 24.94186 19.82845 0 0 -12.9544 1.357711 12.7442 11.87257
